<svg width="56" height="56" viewBox="0 0 56 56" fill="none" xmlns="http://www.w3.org/2000/svg">
<path fill-rule="evenodd" clip-rule="evenodd" d="M6.74317 6.75862C4.62182 6.76604 2.90396 8.48389 2.89655 10.6052V45.3948C2.90396 47.5161 4.62182 49.234 6.74317 49.2414H49.2568C51.3782 49.234 53.096 47.5161 53.1034 45.3948V10.6052C53.096 8.48389 51.3782 6.76604 49.2568 6.75862H6.74317ZM4.82759 45.3948V10.6052C4.83495 9.55036 5.68829 8.69702 6.74317 8.68966H49.2568C50.3117 8.69702 51.165 9.55036 51.1724 10.6052V45.3948C51.165 46.4496 50.3117 47.303 49.2568 47.3103H6.74317C5.68497 47.3103 4.82759 46.4317 4.82759 45.3948ZM26.8568 41.5172H18.4578V40.1057L22.7041 34.4052C23.4601 33.3721 23.9728 32.5514 24.2422 31.9422C24.5125 31.332 24.6467 30.716 24.6467 30.0961C24.6467 29.3913 24.4633 28.8149 24.0983 28.365C23.7324 27.915 23.2284 27.6901 22.5834 27.6901C21.7849 27.6901 21.1757 27.9652 20.7586 28.5166C20.3396 29.0669 20.131 29.7543 20.131 30.577H18.3641L18.3448 30.5142C18.3149 29.2726 18.6827 28.2221 19.4513 27.3608C20.2198 26.4996 21.2636 26.069 22.5825 26.069C23.7903 26.069 24.7414 26.4455 25.4356 27.1986C26.1288 27.9517 26.4764 28.924 26.4764 30.1164C26.4764 30.9178 26.2794 31.7028 25.8865 32.4703C25.4925 33.237 24.8929 34.1986 24.0877 35.3572L20.6775 39.8546L20.6968 39.9068H26.8568V41.5172ZM34.189 33.9659C34.7905 32.2155 35.9462 30.1966 37.6552 27.9102V26.2881H28.6778V27.9102H35.8516C34.4265 29.8828 33.3384 31.7926 32.5862 33.6367C31.8331 35.4808 31.4566 37.5528 31.4566 39.8546V41.5172H33.2882V39.8546C33.2882 37.6784 33.5884 35.7155 34.189 33.9659ZM21.2414 14.4828C20.7081 14.4828 20.2759 14.0505 20.2759 13.5172C20.2759 12.984 20.7081 12.5517 21.2414 12.5517H34.7586C35.2919 12.5517 35.7241 12.984 35.7241 13.5172C35.7241 14.0505 35.2919 14.4828 34.7586 14.4828H21.2414ZM8.68966 19.3103C8.68966 19.8436 9.12193 20.2759 9.65517 20.2759H46.3448C46.8781 20.2759 47.3103 19.8436 47.3103 19.3103C47.3103 18.7771 46.8781 18.3448 46.3448 18.3448H9.65517C9.12193 18.3448 8.68966 18.7771 8.68966 19.3103ZM9.65517 14.4828C9.12193 14.4828 8.68966 14.0505 8.68966 13.5172C8.68966 12.984 9.12193 12.5517 9.65517 12.5517H11.5862C12.1194 12.5517 12.5517 12.984 12.5517 13.5172C12.5517 14.0505 12.1194 14.4828 11.5862 14.4828H9.65517ZM43.4483 13.5172C43.4483 14.0505 43.8806 14.4828 44.4138 14.4828H46.3448C46.8781 14.4828 47.3103 14.0505 47.3103 13.5172C47.3103 12.984 46.8781 12.5517 46.3448 12.5517H44.4138C43.8806 12.5517 43.4483 12.984 43.4483 13.5172Z" fill="#FFC500"/>
</svg>
