<svg width="56" height="56" viewBox="0 0 56 56" fill="none" xmlns="http://www.w3.org/2000/svg">
<path fill-rule="evenodd" clip-rule="evenodd" d="M4.22799 15.1499L17.1992 28.1231L4.22799 41.0943C3.68438 41.6376 3.37895 42.3746 3.37895 43.1432C3.37895 43.9117 3.68438 44.6487 4.22799 45.192L11.0552 52.0182C12.1863 53.149 14.0198 53.149 15.1509 52.0182L28.1226 39.0455L39.3844 50.3083C39.8276 50.7512 40.4025 51.0385 41.0229 51.127L48.9884 52.2654C49.8909 52.3943 50.8014 52.0907 51.4461 51.4461C52.0907 50.8014 52.3943 49.8909 52.2654 48.9884L51.127 41.0229C51.0385 40.4025 50.7512 39.8276 50.3083 39.3844L39.0465 28.1226L52.0182 15.1499C52.5615 14.6067 52.8667 13.8699 52.8667 13.1016C52.8667 12.3333 52.5615 11.5965 52.0182 11.0532L45.191 4.22703C44.6478 3.68372 43.911 3.37848 43.1427 3.37848C42.3744 3.37848 41.6376 3.68372 41.0943 4.22703L28.1226 17.1988L15.1509 4.22703C14.6077 3.68372 13.8708 3.37848 13.1025 3.37848C12.3342 3.37848 11.5974 3.68372 11.0542 4.22703L4.22799 11.0542C3.09723 12.1853 3.09723 14.0188 4.22799 15.1499ZM13.7857 5.59228C13.4086 5.21536 12.7974 5.21536 12.4204 5.59228L5.59324 12.4204C5.21632 12.7975 5.21632 13.4086 5.59324 13.7857L9.00677 17.1993L9.00633 17.1997L10.2023 18.3948L40.7497 48.943L39.6123 47.8047L47.8047 39.6123L18.565 10.3726L15.1509 13.7857L21.2954 19.9302C21.6613 20.3091 21.6561 20.9113 21.2837 21.2837C20.9112 21.6561 20.309 21.6614 19.9302 21.2955L13.7856 15.1509L10.3725 18.565L10.2023 18.3948L9.00677 17.1993L17.1992 9.00683L18.5555 10.3631L17.1997 9.00635L17.1992 9.00683L13.7857 5.59325V5.59228ZM41.0171 49.1313L49.1313 41.0171V41.0161C49.1737 41.1046 49.2023 41.199 49.2163 41.2961L50.3536 49.2617C50.3965 49.5624 50.2953 49.8657 50.0805 50.0805C49.8657 50.2953 49.5624 50.3965 49.2617 50.3537L41.2971 49.2163C41.2 49.2023 41.1056 49.1737 41.0171 49.1313ZM18.565 29.4888L15.8335 32.2193L19.2476 35.6334C19.6135 36.0122 19.6083 36.6144 19.2358 36.9869C18.8634 37.3593 18.2612 37.3645 17.8823 36.9986L14.4683 33.5846L10.3726 37.6812L13.7857 41.0944C14.1629 41.4714 14.1631 42.0828 13.7861 42.4601C13.4091 42.8373 12.7977 42.8376 12.4204 42.4606L9.00634 39.0465L5.59324 42.4606C5.21632 42.8376 5.21632 43.4488 5.59324 43.8258L12.4204 50.652C12.7974 51.0289 13.4086 51.0289 13.7857 50.652L26.7574 37.6812L18.565 29.4888ZM37.6812 26.7574L29.4888 18.565L32.2193 15.8335L35.6334 19.2476C36.0122 19.6135 36.6144 19.6083 36.9869 19.2358C37.3593 18.8634 37.3645 18.2612 36.9986 17.8823L33.5845 14.4683L37.6812 10.3726L41.0943 13.7857C41.3382 14.0297 41.6938 14.1251 42.0271 14.0359C42.3603 13.9468 42.6207 13.6865 42.7102 13.3533C42.7996 13.0201 42.7044 12.6645 42.4605 12.4204L39.0465 9.00634L42.4605 5.59324C42.8376 5.21632 43.4487 5.21632 43.8258 5.59324L50.653 12.4204C51.0299 12.7974 51.0299 13.4086 50.653 13.7857L37.6812 26.7574ZM25.3921 26.7574C25.0152 26.3804 25.0152 25.7692 25.3921 25.3921C25.7692 25.0152 26.3803 25.0152 26.7574 25.3921L39.5862 38.221C39.9521 38.5998 39.9469 39.202 39.5744 39.5745C39.202 39.9469 38.5998 39.9521 38.221 39.5862L25.3921 26.7574Z" fill="#FFC500"/>
</svg>
