<svg width="56" height="56" viewBox="0 0 56 56" fill="none" xmlns="http://www.w3.org/2000/svg">
<path fill-rule="evenodd" clip-rule="evenodd" d="M11.9888 51.7981L31.2161 32.5708C36.8403 34.9536 43.5883 33.853 48.1726 29.2687C48.4246 29.0167 48.666 28.7582 48.897 28.4937C50.4156 31.8436 50.1859 35.184 48.159 38.5724L43.0621 37.5538L36.2358 44.381C35.482 45.135 35.482 46.3574 36.2358 47.1114L41.6968 52.5724C42.059 52.9347 42.5503 53.1383 43.0625 53.1383C43.5748 53.1383 44.0661 52.9347 44.4283 52.5724L51.2554 45.7462V45.7452L49.9655 39.2956C52.3464 35.1529 52.4443 30.9551 50.1992 26.7739C54.1065 20.7847 53.4309 12.6793 48.1726 7.42096C42.14 1.38841 32.3583 1.38841 26.3258 7.42096C21.7415 12.0052 20.6408 18.7542 23.0237 24.3783L3.79545 43.6056C2.72276 44.6783 2.52772 46.4346 3.65931 47.5652L8.02924 51.9352C9.15986 53.0658 10.9161 52.8708 11.9888 51.7981ZM50.1992 26.7739C50.1619 26.7043 50.1239 26.6348 50.0852 26.5652C49.8265 26.0999 48.1387 27.0374 48.3975 27.5037C48.5809 27.8338 48.7474 28.1638 48.897 28.4937C49.3764 27.9447 49.8105 27.3697 50.1992 26.7739ZM23.9384 26.1941L23.939 26.1935H23.9381L23.9384 26.1941ZM5.16164 44.9709L23.9384 26.1941C24.6013 27.3153 25.4031 28.3483 26.3248 29.2687C27.2453 30.1905 28.2786 30.9925 29.4 31.6554L10.6236 50.4328C10.2461 50.8103 9.69571 50.8712 9.39447 50.569L5.02454 46.2C4.7233 45.8978 4.78509 45.3474 5.16164 44.9709ZM27.691 27.9025C32.9705 33.1819 41.5288 33.1819 46.8083 27.9025C52.0867 22.624 52.0867 14.0656 46.8083 8.78717C41.5288 3.50772 32.9705 3.50772 27.691 8.78717C22.4125 14.0656 22.4125 22.624 27.691 27.9025ZM36.6588 13.6558C37.5528 12.1407 39.3578 11.4211 41.049 11.9058C41.0725 11.9125 41.0964 11.9183 41.1204 11.9232C41.7213 12.1082 42.2676 12.4377 42.7116 12.8829C43.0918 13.2395 43.6865 13.2298 44.055 12.8611C44.4235 12.4923 44.4327 11.8977 44.0759 11.5176C41.8716 9.32515 38.3296 9.26356 36.0504 11.3781C33.7713 13.4926 33.5676 17.0292 35.589 19.3914C36.9766 21.0078 39.1394 21.7322 41.2207 21.2777C43.3019 20.8231 44.9658 19.2629 45.5531 17.2152C45.7003 16.7025 45.4039 16.1675 44.8912 16.0203C44.3785 15.8732 43.8436 16.1695 43.6964 16.6822C43.5197 17.3021 43.2011 17.8408 42.7859 18.2772C42.7598 18.2985 42.7347 18.3207 42.7116 18.3448C41.9873 19.0691 41.0049 19.4761 39.9806 19.4761C38.9563 19.4761 37.9739 19.0691 37.2496 18.3448C36.0077 17.0988 35.7648 15.1709 36.6588 13.6558ZM21.5465 35.4132C21.9234 35.7903 21.9234 36.4014 21.5465 36.7785L18.816 39.509C18.5736 39.7599 18.2146 39.8606 17.877 39.7723C17.5394 39.6839 17.2758 39.4203 17.1874 39.0827C17.0991 38.7451 17.1997 38.3861 17.4507 38.1437L20.1812 35.4132C20.5583 35.0363 21.1694 35.0363 21.5465 35.4132ZM16.0845 40.8752C16.4615 41.2522 16.4615 41.8634 16.0845 42.2404L10.6236 47.7023C10.3795 47.9464 10.0238 48.0417 9.69043 47.9524C9.35706 47.863 9.09666 47.6026 9.00733 47.2693C8.918 46.9359 9.01332 46.5802 9.25736 46.3361L14.7193 40.8752C15.0963 40.4982 15.7075 40.4982 16.0845 40.8752ZM43.063 51.2081L37.6011 45.7462L43.6974 39.6499L48.2488 40.5594L49.1593 45.1109L43.063 51.2081Z" fill="#FFC500"/>
</svg>
