<svg width="56" height="56" viewBox="0 0 56 56" fill="none" xmlns="http://www.w3.org/2000/svg">
<path fill-rule="evenodd" clip-rule="evenodd" d="M47.1819 15.8992C50.928 17.1564 53.3541 20.7828 53.0868 24.7251C52.8195 28.6674 49.926 31.933 46.0446 32.6731C44.7932 38.2866 39.7832 42.4828 33.7931 42.4828C33.3953 42.4828 33.0023 42.4634 32.6152 42.4277L30.2303 51.1724H48.2759C48.8091 51.1724 49.2414 51.6047 49.2414 52.1379C49.2414 52.6712 48.8091 53.1034 48.2759 53.1034H7.72414C7.1909 53.1034 6.75862 52.6712 6.75862 52.1379C6.75862 51.6047 7.1909 51.1724 7.72414 51.1724H22.8403L20.3164 42.7599C20.1634 42.249 20.4534 41.7108 20.9643 41.5578C21.4751 41.4047 22.0133 41.6948 22.1663 42.2057L24.8563 51.1724H28.2279L30.7025 42.0994C27.9596 41.4015 25.5328 39.7977 23.8154 37.548C21.8351 39.4774 19.1786 40.5555 16.4138 40.5517C10.5483 40.5517 5.7931 35.7965 5.7931 29.931C5.7931 28.2877 6.16676 26.7313 6.83297 25.3429C3.33174 23.0465 1.96601 18.5799 3.58433 14.7181C5.20265 10.8564 9.34477 8.69789 13.4371 9.58372C15.7823 5.58261 20.1291 2.89655 25.1034 2.89655C29.4 2.89655 33.2292 4.90192 35.7048 8.0273C38.2783 6.55304 41.4687 6.68231 43.9145 8.35997C46.3603 10.0376 47.6297 12.9674 47.181 15.8992H47.1819ZM45.2895 15.4908C45.6851 12.4666 43.6685 9.65362 40.6775 9.05715C37.6865 8.46069 34.7452 10.285 33.9505 13.2295C33.8611 13.5627 33.6008 13.823 33.2676 13.9122C32.9343 14.0015 32.5788 13.9061 32.3349 13.6622C32.091 13.4182 31.9958 13.0626 32.0851 12.7294C32.4437 11.3828 33.1616 10.159 34.1619 9.18883C31.9653 6.43002 28.63 4.8242 25.1035 4.82759C18.705 4.82759 13.5172 10.0153 13.5172 16.4138C13.5172 16.947 13.085 17.3793 12.5517 17.3793C12.0185 17.3793 11.5862 16.947 11.5862 16.4138C11.5862 14.6372 11.929 12.9408 12.5517 11.3863C9.435 10.9472 6.42755 12.717 5.29815 15.6549C4.16876 18.5928 5.21624 21.9215 7.82455 23.6832C9.75559 21.0328 12.8839 19.3104 16.4138 19.3104C16.947 19.3104 17.3793 19.7426 17.3793 20.2759C17.3793 20.8091 16.947 21.2414 16.4138 21.2414C11.6146 21.2414 7.72414 25.1319 7.72414 29.931C7.72414 34.7302 11.6146 38.6207 16.4138 38.6207C21.213 38.6207 25.1035 34.7302 25.1035 29.931C25.1035 29.3978 25.5357 28.9655 26.069 28.9655C26.6022 28.9655 27.0345 29.3978 27.0345 29.931C27.0345 32.2048 26.32 34.3116 25.1035 36.0389C27.091 38.87 30.334 40.5542 33.7931 40.5517C38.6574 40.5517 42.7579 37.2815 44.016 32.8199C42.6265 32.7572 41.2725 32.3604 40.069 31.6632C39.7678 31.4919 39.5814 31.1724 39.5807 30.826C39.5799 30.4795 39.7648 30.1592 40.0653 29.9866C40.3657 29.814 40.7356 29.8157 41.0345 29.9909C43.4018 31.3578 46.3595 31.164 48.5283 29.5C50.697 27.8359 51.6498 25.0292 50.9423 22.3887C50.2349 19.7482 48.0064 17.7939 45.2962 17.4371C42.5859 17.0803 39.9276 18.3912 38.5608 20.7586C38.2924 21.2165 37.7048 21.3719 37.2451 21.1065C36.7855 20.8411 36.6262 20.2545 36.8886 19.7931C38.5984 16.831 41.8866 15.147 45.2895 15.4908ZM26.4482 12.6293C26.131 12.4938 25.7656 12.5379 25.4897 12.7448C22.6153 14.9008 21.5098 17.8495 22.2262 21.4306C22.3457 21.937 22.845 22.2576 23.3553 22.1556C23.8655 22.0535 24.203 21.5656 24.1186 21.0521C23.548 18.1961 24.3726 15.9957 26.6483 14.2897C26.9242 14.0827 27.0688 13.7442 27.0276 13.4018C26.9863 13.0593 26.7655 12.7648 26.4482 12.6293Z" fill="#FFC500"/>
</svg>
