<svg width="56" height="56" viewBox="0 0 56 56" fill="none" xmlns="http://www.w3.org/2000/svg">
<path fill-rule="evenodd" clip-rule="evenodd" d="M45.4923 12.8018C45.5162 12.8289 45.5417 12.8547 45.5686 12.879V12.88C51.8174 20.1359 53.1314 30.828 48.0721 39.5901C47.8098 40.0515 47.9691 40.6381 48.4287 40.9035C48.8883 41.1688 49.476 41.0135 49.7444 40.5556C55.971 29.7717 53.2859 16.2873 43.9745 8.63077C41.7228 6.76992 39.1616 5.31922 36.4077 4.34484C32.8778 3.0858 29.1876 2.6658 25.5978 3.01435C21.9396 3.36156 18.4032 4.51181 15.2407 6.38304C12.7234 7.86503 10.486 9.77785 8.63076 12.0342C6.77001 14.2857 5.31931 16.8465 4.34483 19.6C3.11124 23.0618 2.65694 26.7533 3.01434 30.4109C3.36155 34.0691 4.5118 37.6055 6.38303 40.768C7.86502 43.2853 9.77783 45.5227 12.0342 47.3779C21.3273 55.0567 35.0753 55.1195 44.4737 46.9502C44.7341 46.7238 44.8539 46.3756 44.788 46.0368C44.7221 45.698 44.4805 45.4201 44.1542 45.3078C43.8278 45.1955 43.4664 45.2658 43.2059 45.4923C35.5706 52.1302 24.8244 52.8804 16.5094 48.132C16.4804 48.1108 16.4495 48.0905 16.4177 48.0722C15.2899 47.4204 14.2375 46.6886 13.2623 45.8872C12.2747 45.0707 11.3559 44.1743 10.5154 43.2069C9.59045 42.1437 8.7638 40.9987 8.04565 39.7861C6.32562 36.8636 5.26458 33.6007 4.93669 30.2255C4.61463 26.8496 5.03378 23.444 6.16483 20.2469C6.63841 18.9196 7.23142 17.6379 7.93655 16.4177C8.58731 15.2899 9.31917 14.2375 10.1205 13.2624C10.9373 12.2746 11.8341 11.3559 12.8018 10.5155C13.8647 9.59051 15.0094 8.76386 16.2217 8.04566C19.1444 6.3255 22.4076 5.26445 25.7832 4.9367C29.1591 4.61464 32.5647 5.03379 35.7618 6.16484C37.0888 6.63848 38.3702 7.23148 39.5901 7.93656C40.7188 8.58732 41.7712 9.31918 42.7463 10.1206C43.7337 10.9374 44.6521 11.8342 45.4923 12.8018ZM8.68288 28.0068C8.68288 38.6719 17.3281 47.3171 27.9932 47.3171C38.6583 47.3171 47.3036 38.6719 47.3036 28.0068C47.3036 17.3417 38.6583 8.69643 27.9932 8.69643C17.3281 8.69643 8.68288 17.3417 8.68288 28.0068ZM45.3725 28.0068C45.3725 37.605 37.5914 45.3861 27.9932 45.3861C18.395 45.3861 10.6139 37.605 10.6139 28.0068C10.6139 18.4086 18.395 10.6275 27.9932 10.6275C37.5914 10.6275 45.3725 18.4086 45.3725 28.0068ZM27.9488 34.5887H19.4262V33.3152L23.7353 28.1767C24.5019 27.2469 25.0223 26.5064 25.2956 25.956C25.5688 25.4057 25.7059 24.8515 25.7059 24.2924C25.7059 23.6571 25.5205 23.1377 25.1498 22.7321C24.779 22.3266 24.2663 22.1239 23.6127 22.1239C22.8016 22.1239 22.1837 22.372 21.7598 22.8683C21.335 23.3655 21.1226 23.9844 21.1226 24.7259H19.3316L19.3123 24.669C19.2814 23.5509 19.656 22.6028 20.4352 21.8265C21.2143 21.0502 22.2735 20.6621 23.6127 20.6621C24.8389 20.6621 25.8034 21.0019 26.5073 21.6807C27.2121 22.3595 27.5636 23.2361 27.5636 24.3108C27.5636 25.0339 27.3637 25.7407 26.965 26.433C26.5652 27.1243 25.957 27.9913 25.1401 29.035L21.6797 33.0902L21.699 33.1366H27.9498V34.5887H27.9488ZM37.267 29.9687H35.3717H35.3708V20.86H33.4088L27.6292 30.3742V31.4208H33.5227V34.5877H35.3717V31.4208H37.267V29.9687ZM29.6202 29.9687H33.5237V23.5287L33.4668 23.519L33.2882 23.9902L29.6192 29.9687H29.6202Z" fill="#FFC500"/>
</svg>
