<svg width="56" height="56" viewBox="0 0 56 56" fill="none" xmlns="http://www.w3.org/2000/svg">
<path fill-rule="evenodd" clip-rule="evenodd" d="M19.713 15.4454L26.4687 8.68964H38.6188C38.8939 8.68964 39.3941 8.89723 39.591 9.09419L44.0092 13.5124C44.5673 14.0714 45.5637 14.4827 46.3477 14.4827H52.1379C52.6712 14.4827 53.1034 14.0505 53.1034 13.5172C53.1034 12.984 52.6712 12.5517 52.1379 12.5517H46.3477C46.0754 12.5517 45.5705 12.3432 45.3745 12.1472L40.9553 7.72895C40.3982 7.17088 39.4076 6.75861 38.6188 6.75861H19.3123C18.5292 6.75861 17.5328 7.16992 16.9748 7.72895L12.5565 12.1472C12.3596 12.3441 11.8614 12.5517 11.5881 12.5517H3.86206C3.32882 12.5517 2.89655 12.984 2.89655 13.5172C2.89655 14.0505 3.32882 14.4827 3.86206 14.4827H11.5881C12.376 14.4827 13.3628 14.0705 13.9218 13.5124L18.34 9.09419C18.536 8.89819 19.041 8.68964 19.3123 8.68964H23.7382L18.3477 14.0801C17.6458 14.7821 17.5212 15.9532 18.0687 16.7758L18.9454 18.089C19.4552 18.8546 20.5095 19.2823 21.4074 19.0902L31.0665 15.4328C31.5784 15.3265 31.9127 14.8321 31.8206 14.3175C31.7286 13.8028 31.2436 13.4549 30.7266 13.5327L21.0348 17.1949C20.8793 17.2277 20.6225 17.1234 20.552 17.0172L19.6763 15.7041C19.6415 15.653 19.6579 15.5004 19.713 15.4454ZM36.3614 43.3758L31.8862 38.9007C31.5092 38.5234 31.5094 37.912 31.8867 37.535C32.264 37.1579 32.8754 37.1582 33.2524 37.5354L37.7266 42.0096L41.8088 37.9284L37.3752 33.4947C37.0093 33.1159 37.0145 32.5137 37.3869 32.1413C37.7594 31.7688 38.3616 31.7636 38.7404 32.1295L43.1741 36.5632L46.2222 33.515C46.3975 33.3421 46.4944 33.1051 46.4906 32.859C46.4868 32.6128 46.3825 32.3789 46.2019 32.2116L36.0302 20.7827C35.6404 20.4185 35.6197 19.8073 35.9839 19.4175C36.3481 19.0277 36.9593 19.007 37.3491 19.3712L47.5199 30.801C47.8481 31.107 48.0866 31.471 48.2353 31.8621H52.1379C52.6712 31.8621 53.1034 32.2943 53.1034 32.8276C53.1034 33.3608 52.6712 33.7931 52.1379 33.7931H48.2681C48.1273 34.203 47.8945 34.5753 47.5874 34.8812L34.8812 47.5874C33.7834 48.6852 31.9412 48.8185 30.8 47.9534L29.4521 47.1829C29.3451 47.1222 29.2507 47.0416 29.1741 46.9454L28.1796 47.7747C27.0036 48.7538 25.1594 48.7885 23.9699 47.8481L10.1553 36.9426C9.08744 36.0997 8.5313 34.9556 8.49172 33.7931H3.86206C3.32882 33.7931 2.89655 33.3608 2.89655 32.8276C2.89655 32.2943 3.32882 31.8621 3.86206 31.8621H8.91944C9.16565 31.3696 9.51806 30.9062 9.97668 30.4997L14.337 26.6232C15.5226 25.5698 17.3629 25.6837 18.4259 26.879L31.2934 41.355C31.8066 41.9306 32.064 42.6899 32.0065 43.459C31.949 44.228 31.5815 44.9406 30.9883 45.4334L30.6996 45.6738L31.8582 46.3419C32.3313 46.6963 33.097 46.6412 33.516 46.2222L36.3614 43.3768V43.3758ZM20.0852 31.653L20.0857 31.6535V31.6525L20.0852 31.653ZM16.9825 28.1622L20.0852 31.653L14.1226 37.6146L11.3516 35.4267C10.1466 34.4757 10.107 32.9666 11.2589 31.9432L15.6211 28.0656C16.0063 27.7229 16.6262 27.7615 16.9825 28.1622ZM25.0841 37.2757L21.3708 33.0989L15.6491 38.8196L20.0586 42.3003L25.0832 37.2757H25.0841ZM26.3683 38.7211L21.5841 43.5052L25.1662 46.3332C25.6364 46.704 26.4658 46.6885 26.9427 46.2907L29.7524 43.9494C29.9436 43.7912 30.0621 43.562 30.0805 43.3146C30.0989 43.0671 30.0156 42.8229 29.8499 42.6382L26.3683 38.7211Z" fill="#FFC500"/>
</svg>
